<svg width="20" height="21" viewBox="0 0 20 21" fill="none" xmlns="http://www.w3.org/2000/svg">
<path d="M17.8395 17.1866L14.1641 13.5112C15.0489 12.3332 15.5266 10.8994 15.525 9.42607C15.525 5.66279 12.4633 2.60107 8.7 2.60107C4.93672 2.60107 1.875 5.66279 1.875 9.42607C1.875 13.1894 4.93672 16.2511 8.7 16.2511C10.1733 16.2527 11.6072 15.775 12.7852 14.8901L16.4605 18.5655C16.6466 18.7318 16.8893 18.8206 17.1387 18.8136C17.3881 18.8067 17.6255 18.7044 17.8019 18.528C17.9784 18.3515 18.0806 18.1142 18.0876 17.8648C18.0945 17.6153 18.0058 17.3727 17.8395 17.1866V17.1866ZM3.825 9.42607C3.825 8.46189 4.11091 7.51936 4.64659 6.71767C5.18226 5.91598 5.94363 5.29114 6.83442 4.92216C7.72521 4.55318 8.70541 4.45664 9.65107 4.64475C10.5967 4.83285 11.4654 5.29715 12.1471 5.97893C12.8289 6.66071 13.2932 7.52935 13.4813 8.47501C13.6694 9.42067 13.5729 10.4009 13.2039 11.2917C12.8349 12.1824 12.2101 12.9438 11.4084 13.4795C10.6067 14.0152 9.66418 14.3011 8.7 14.3011C7.40755 14.2995 6.16847 13.7854 5.25457 12.8715C4.34066 11.9576 3.82655 10.7185 3.825 9.42607V9.42607Z" fill="#7E7E7E"/>
</svg>
